<svg width="566" height="78" viewBox="0 0 566 78" fill="none" xmlns="http://www.w3.org/2000/svg">
<path d="M5 5h42v9H14v22h30v9H14v33H5V5z" fill="#1e40af"/>
<path d="M60 5h9l30 73H89L82 60H52l-7 18H35L60 5zm18 47L63 15 48 52h30z" fill="#1e40af"/>
<path d="M105 5h42L105 69h42v9H105l42-64H105V5z" fill="#1e40af"/>
<rect x="170" y="10" width="22" height="58" rx="6" stroke="#3b82f6" stroke-width="4" fill="none"/>
<line x1="177" y1="28" x2="186" y2="28" stroke="#3b82f6" stroke-width="3" stroke-linecap="round"/>
<line x1="177" y1="40" x2="186" y2="40" stroke="#3b82f6" stroke-width="3" stroke-linecap="round"/>
<text x="210" y="55" font-family="system-ui,sans-serif" font-size="40" font-weight="600" fill="#334155">Cookie Manager</text>
</svg>
